<svg version="1.1" viewBox="0.0 0.0 19.0 19.0" fill="none" stroke="none" stroke-linecap="square" stroke-miterlimit="10" xmlns:xlink="http://www.w3.org/1999/xlink" xmlns="http://www.w3.org/2000/svg"><clipPath id="p.0"><path d="m0 0l19.0 0l0 19.0l-19.0 0l0 -19.0z" clip-rule="nonzero"/></clipPath><g clip-path="url(#p.0)"><path fill="#000000" fill-opacity="0.0" d="m0 0l19.0 0l0 19.0l-19.0 0z" fill-rule="evenodd"/><path fill="#775430" d="m5.918404 11.845712l0 0c0.28938866 -0.30212402 0.7698493 -0.31343842 1.0731387 -0.025271416l0.6828666 0.64881897l0 0c0.14564514 0.13838291 0.23011923 0.32873344 0.23483896 0.5291748c0.004720211 0.20044231 -0.07070017 0.39455795 -0.20966959 0.53964233l-4.9045153 5.12035c-0.2893889 0.30212402 -0.76984954 0.31343842 -1.073139 0.025270462l-0.6828668 -0.64881897c-0.30328935 -0.28816605 -0.3145579 -0.7666931 -0.025169015 -1.0688171z" fill-rule="evenodd"/><path fill="#b7b7b7" d="m6.0568285 11.279117l2.2241354 2.1945572l-1.2919908 1.3885136l-2.2241354 -2.1945581z" fill-rule="evenodd"/><path fill="#d9d9d9" d="m5.1091127 13.28467l0.2064724 0.12210083l-3.7851052 3.9550114l-0.2064724 -0.12210083z" fill-rule="evenodd"/><path fill="#434343" d="m6.1521735 14.432202l0.2064724 0.12210083l-3.7851055 3.9550104l-0.2064724 -0.12210083z" fill-rule="evenodd"/><path fill="#d9d9d9" d="m6.0240784 12.227172l0.2064724 0.12210083l-0.6202364 0.6181984l-0.2064724 -0.12210083z" fill-rule="evenodd"/><path fill="#000000" fill-opacity="0.0" d="m4.4986877 1.136483l14.834646 0l0 16.220472l-14.834646 0z" fill-rule="evenodd"/><path fill="#3c78d8" d="m12.936188 0.24445604q1.71875 0 3.03125 0.6875q1.3125 0.6875 2.03125 1.96875q0.71875 1.2812498 0.71875 2.9531248q0 0.515625 -0.0625 1.0625q-0.25 1.8750005 -1.1875 2.9375005q-0.921875 1.046875 -2.328125 1.046875q-1.328125 0 -1.90625 -0.90625q-0.046875 -0.0625 -0.109375 0q-0.28125 0.484375 -0.734375 0.71875q-0.453125 0.21875 -0.953125 0.21875q-0.890625 0 -1.453125 -0.53125q-0.546875 -0.53125 -0.546875 -1.421875q0 -0.328125 0.1875 -1.7656255q0.078125 -0.71875 0.1875 -1.421875q0.140625 -1.0 0.71875 -1.578125q0.59375 -0.57812476 1.515625 -0.57812476q0.328125 0 0.671875 0.140625q0.34375 0.140625 0.578125 0.42187476q0.046875 0.046875 0.078125 0.03125q0.03125 -0.03125 0.03125 -0.078125l0.015625 -0.23437476q0.015625 -0.171875 0.203125 -0.171875l0.640625 0q0.09375 0 0.15625 0.0625q0.0625 0.0625 0.03125 0.15625l-0.515625 4.078125q-0.015625 0.109375 -0.015625 0.359375q0 0.703125 0.359375 1.125q0.375 0.40625 1.015625 0.40625q0.890625 0 1.484375 -0.796875q0.59375 -0.796875 0.78125 -2.2187505q0.0625 -0.515625 0.0625 -0.953125q0 -1.453125 -0.59375 -2.5312498q-0.59375 -1.078125 -1.6875 -1.65625q-1.078125 -0.578125 -2.53125 -0.578125q-1.53125 0 -2.875 0.78125q-1.34375 0.78125 -2.234375 2.1874998q-0.890625 1.40625 -1.109375 3.1875q-0.046875 0.5 -0.046875 0.9687505q0 1.515625 0.609375 2.65625q0.625 1.125 1.671875 1.71875q1.046875 0.59375 2.359375 0.59375q0.953125 0 1.765625 -0.265625q0.828125 -0.265625 1.34375 -0.65625q0.046875 -0.03125 0.125 -0.03125q0.09375 0 0.15625 0.078125l0.328125 0.453125q0.03125 0.09375 0.03125 0.125q0 0.109375 -0.09375 0.15625q-0.65625 0.5 -1.65625 0.8125q-1.0 0.3125 -2.1875 0.3125q-1.59375 0 -2.859375 -0.71875q-1.265625 -0.703125 -1.96875 -2.03125q-0.6875 -1.328125 -0.6875 -3.109375q0 -0.359375 0.078125 -1.1250005q0.25 -2.046875 1.296875 -3.6562498q1.0625 -1.625 2.65625 -2.5q1.609375 -0.890625 3.421875 -0.890625zm-0.03125 7.9531255l0.15625 -1.2968755l0.125 -1.0625q0.015625 -0.078125 0.015625 -0.21875q0 -0.484375 -0.28125 -0.78125q-0.28125 -0.296875 -0.734375 -0.296875q-0.53125 0 -0.90625 0.375q-0.359375 0.359375 -0.4375 0.921875q-0.046875 0.421875 -0.078125 0.59375q-0.078125 0.484375 -0.109375 0.859375l-0.171875 1.4218755q-0.046875 0.578125 0.234375 0.9375q0.28125 0.359375 0.78125 0.359375q0.5 0 0.859375 -0.359375q0.359375 -0.359375 0.453125 -0.9375l0.09375 -0.515625z" fill-rule="nonzero"/><path fill="#d9d9d9" d="m2.4628603 17.90612l-0.12598419 0.22047234l-0.6299213 -0.56692886l0.12598431 -0.22047234z" fill-rule="evenodd"/></g></svg>